<mxfile host="app.diagrams.net" modified="2023-04-29T05:49:53.916Z" agent="Mozilla/5.0 (X11; Linux x86_64) AppleWebKit/537.36 (KHTML, like Gecko) Chrome/112.0.0.0 Safari/537.36" etag="16aJik_aGsVRrvwY-IbF" version="21.2.3" type="device">
  <diagram name="Page-1" id="m8r2mnt0skPyi94N9bmf">
    <mxGraphModel dx="995" dy="633" grid="1" gridSize="10" guides="1" tooltips="1" connect="1" arrows="1" fold="1" page="1" pageScale="1" pageWidth="827" pageHeight="1169" math="0" shadow="0">
      <root>
        <mxCell id="0" />
        <mxCell id="1" parent="0" />
        <mxCell id="J6pfeVUVHsCBB-X3MQVi-19" value="" style="rounded=0;whiteSpace=wrap;html=1;" vertex="1" parent="1">
          <mxGeometry x="160" y="490" width="520" height="70" as="geometry" />
        </mxCell>
        <mxCell id="J6pfeVUVHsCBB-X3MQVi-1" value="Frontend" style="rounded=1;whiteSpace=wrap;html=1;fillColor=#d5e8d4;strokeColor=#82b366;" vertex="1" parent="1">
          <mxGeometry x="359" y="120" width="121" height="40" as="geometry" />
        </mxCell>
        <mxCell id="J6pfeVUVHsCBB-X3MQVi-4" value="FastAPI" style="rounded=1;whiteSpace=wrap;html=1;fillColor=#e1d5e7;strokeColor=#9673a6;" vertex="1" parent="1">
          <mxGeometry x="359" y="240" width="121" height="40" as="geometry" />
        </mxCell>
        <mxCell id="J6pfeVUVHsCBB-X3MQVi-5" value="" style="endArrow=classic;html=1;rounded=0;entryX=0.364;entryY=1.075;entryDx=0;entryDy=0;entryPerimeter=0;exitX=0.364;exitY=0;exitDx=0;exitDy=0;exitPerimeter=0;" edge="1" parent="1" source="J6pfeVUVHsCBB-X3MQVi-4" target="J6pfeVUVHsCBB-X3MQVi-1">
          <mxGeometry width="50" height="50" relative="1" as="geometry">
            <mxPoint x="399" y="200" as="sourcePoint" />
            <mxPoint x="440" y="370" as="targetPoint" />
          </mxGeometry>
        </mxCell>
        <mxCell id="J6pfeVUVHsCBB-X3MQVi-6" value="" style="endArrow=classic;html=1;rounded=0;entryX=0.364;entryY=1.075;entryDx=0;entryDy=0;entryPerimeter=0;exitX=0.364;exitY=0;exitDx=0;exitDy=0;exitPerimeter=0;" edge="1" parent="1">
          <mxGeometry width="50" height="50" relative="1" as="geometry">
            <mxPoint x="440" y="163" as="sourcePoint" />
            <mxPoint x="440" y="240" as="targetPoint" />
          </mxGeometry>
        </mxCell>
        <mxCell id="J6pfeVUVHsCBB-X3MQVi-10" value="" style="html=1;rounded=0;entryX=0.492;entryY=-0.02;entryDx=0;entryDy=0;exitX=0.5;exitY=1;exitDx=0;exitDy=0;entryPerimeter=0;" edge="1" parent="1" source="J6pfeVUVHsCBB-X3MQVi-4" target="J6pfeVUVHsCBB-X3MQVi-11">
          <mxGeometry width="50" height="50" relative="1" as="geometry">
            <mxPoint x="440" y="370" as="sourcePoint" />
            <mxPoint x="419.5" y="350" as="targetPoint" />
          </mxGeometry>
        </mxCell>
        <mxCell id="J6pfeVUVHsCBB-X3MQVi-11" value="" style="image;sketch=0;aspect=fixed;html=1;points=[];align=center;fontSize=12;image=img/lib/mscae/Cache_Redis_Product.svg;" vertex="1" parent="1">
          <mxGeometry x="389.74" y="360" width="59.52" height="50" as="geometry" />
        </mxCell>
        <mxCell id="J6pfeVUVHsCBB-X3MQVi-20" value="" style="endArrow=classic;startArrow=classic;html=1;rounded=0;entryX=0.5;entryY=1;entryDx=0;entryDy=0;exitX=0.492;exitY=-0.02;exitDx=0;exitDy=0;exitPerimeter=0;" edge="1" parent="1">
          <mxGeometry width="50" height="50" relative="1" as="geometry">
            <mxPoint x="419" y="489" as="sourcePoint" />
            <mxPoint x="420" y="410" as="targetPoint" />
          </mxGeometry>
        </mxCell>
        <mxCell id="J6pfeVUVHsCBB-X3MQVi-21" value="Scrapy Workers" style="text;html=1;align=center;verticalAlign=middle;resizable=0;points=[];autosize=1;strokeColor=none;fillColor=none;" vertex="1" parent="1">
          <mxGeometry x="140" y="460" width="110" height="30" as="geometry" />
        </mxCell>
        <mxCell id="J6pfeVUVHsCBB-X3MQVi-22" value="Queue" style="text;html=1;align=center;verticalAlign=middle;resizable=0;points=[];autosize=1;strokeColor=none;fillColor=none;" vertex="1" parent="1">
          <mxGeometry x="329.26" y="370" width="60" height="30" as="geometry" />
        </mxCell>
        <mxCell id="J6pfeVUVHsCBB-X3MQVi-23" value="" style="image;sketch=0;aspect=fixed;html=1;points=[];align=center;fontSize=12;image=img/lib/mscae/Cache_Redis_Product.svg;" vertex="1" parent="1">
          <mxGeometry x="389.74" y="640" width="59.52" height="50" as="geometry" />
        </mxCell>
        <mxCell id="J6pfeVUVHsCBB-X3MQVi-24" value="" style="endArrow=classic;html=1;rounded=0;entryX=0.5;entryY=1;entryDx=0;entryDy=0;exitX=0.492;exitY=-0.02;exitDx=0;exitDy=0;exitPerimeter=0;" edge="1" parent="1">
          <mxGeometry width="50" height="50" relative="1" as="geometry">
            <mxPoint x="420" y="560" as="sourcePoint" />
            <mxPoint x="419" y="639" as="targetPoint" />
          </mxGeometry>
        </mxCell>
        <mxCell id="J6pfeVUVHsCBB-X3MQVi-28" value="Queue" style="text;html=1;align=center;verticalAlign=middle;resizable=0;points=[];autosize=1;strokeColor=none;fillColor=none;" vertex="1" parent="1">
          <mxGeometry x="329.26" y="650" width="60" height="30" as="geometry" />
        </mxCell>
        <mxCell id="J6pfeVUVHsCBB-X3MQVi-29" value="" style="rounded=0;whiteSpace=wrap;html=1;" vertex="1" parent="1">
          <mxGeometry x="159.5" y="770" width="520" height="70" as="geometry" />
        </mxCell>
        <mxCell id="J6pfeVUVHsCBB-X3MQVi-34" value="Parsing Workers" style="text;html=1;align=center;verticalAlign=middle;resizable=0;points=[];autosize=1;strokeColor=none;fillColor=none;" vertex="1" parent="1">
          <mxGeometry x="140" y="740" width="110" height="30" as="geometry" />
        </mxCell>
        <mxCell id="J6pfeVUVHsCBB-X3MQVi-35" value="" style="html=1;rounded=0;entryX=0.5;entryY=1;entryDx=0;entryDy=0;exitX=0.492;exitY=-0.02;exitDx=0;exitDy=0;exitPerimeter=0;" edge="1" parent="1">
          <mxGeometry width="50" height="50" relative="1" as="geometry">
            <mxPoint x="420" y="690" as="sourcePoint" />
            <mxPoint x="419" y="769" as="targetPoint" />
          </mxGeometry>
        </mxCell>
        <mxCell id="J6pfeVUVHsCBB-X3MQVi-36" value="" style="outlineConnect=0;dashed=0;verticalLabelPosition=bottom;verticalAlign=top;align=center;html=1;shape=mxgraph.aws3.worker;fillColor=#D9A741;gradientColor=none;" vertex="1" parent="1">
          <mxGeometry x="185.25" y="501.5" width="47.5" height="45" as="geometry" />
        </mxCell>
        <mxCell id="J6pfeVUVHsCBB-X3MQVi-37" value="" style="outlineConnect=0;dashed=0;verticalLabelPosition=bottom;verticalAlign=top;align=center;html=1;shape=mxgraph.aws3.worker;fillColor=#D9A741;gradientColor=none;" vertex="1" parent="1">
          <mxGeometry x="312.75" y="501.5" width="47.5" height="45" as="geometry" />
        </mxCell>
        <mxCell id="J6pfeVUVHsCBB-X3MQVi-39" value="" style="outlineConnect=0;dashed=0;verticalLabelPosition=bottom;verticalAlign=top;align=center;html=1;shape=mxgraph.aws3.worker;fillColor=#D9A741;gradientColor=none;" vertex="1" parent="1">
          <mxGeometry x="440.25" y="501.5" width="47.5" height="45" as="geometry" />
        </mxCell>
        <mxCell id="J6pfeVUVHsCBB-X3MQVi-41" value="" style="outlineConnect=0;dashed=0;verticalLabelPosition=bottom;verticalAlign=top;align=center;html=1;shape=mxgraph.aws3.worker;fillColor=#D9A741;gradientColor=none;" vertex="1" parent="1">
          <mxGeometry x="567.75" y="501.5" width="47.5" height="45" as="geometry" />
        </mxCell>
        <mxCell id="J6pfeVUVHsCBB-X3MQVi-44" value="" style="outlineConnect=0;dashed=0;verticalLabelPosition=bottom;verticalAlign=top;align=center;html=1;shape=mxgraph.aws3.worker;fillColor=#D9A741;gradientColor=none;" vertex="1" parent="1">
          <mxGeometry x="185.25" y="783" width="47.5" height="45" as="geometry" />
        </mxCell>
        <mxCell id="J6pfeVUVHsCBB-X3MQVi-45" value="" style="outlineConnect=0;dashed=0;verticalLabelPosition=bottom;verticalAlign=top;align=center;html=1;shape=mxgraph.aws3.worker;fillColor=#D9A741;gradientColor=none;" vertex="1" parent="1">
          <mxGeometry x="312.75" y="783" width="47.5" height="45" as="geometry" />
        </mxCell>
        <mxCell id="J6pfeVUVHsCBB-X3MQVi-47" value="" style="outlineConnect=0;dashed=0;verticalLabelPosition=bottom;verticalAlign=top;align=center;html=1;shape=mxgraph.aws3.worker;fillColor=#D9A741;gradientColor=none;" vertex="1" parent="1">
          <mxGeometry x="440.25" y="783" width="47.5" height="45" as="geometry" />
        </mxCell>
        <mxCell id="J6pfeVUVHsCBB-X3MQVi-49" value="" style="outlineConnect=0;dashed=0;verticalLabelPosition=bottom;verticalAlign=top;align=center;html=1;shape=mxgraph.aws3.worker;fillColor=#D9A741;gradientColor=none;" vertex="1" parent="1">
          <mxGeometry x="567.75" y="783" width="47.5" height="45" as="geometry" />
        </mxCell>
        <mxCell id="J6pfeVUVHsCBB-X3MQVi-59" value="Mongo" style="shape=cylinder3;whiteSpace=wrap;html=1;boundedLbl=1;backgroundOutline=1;size=15;fillColor=#ffe6cc;strokeColor=#d79b00;" vertex="1" parent="1">
          <mxGeometry x="610" y="330" width="60" height="80" as="geometry" />
        </mxCell>
        <mxCell id="J6pfeVUVHsCBB-X3MQVi-61" value="" style="endArrow=classic;startArrow=classic;html=1;rounded=0;exitX=0.5;exitY=1;exitDx=0;exitDy=0;exitPerimeter=0;" edge="1" parent="1" source="J6pfeVUVHsCBB-X3MQVi-59">
          <mxGeometry width="50" height="50" relative="1" as="geometry">
            <mxPoint x="490" y="270" as="sourcePoint" />
            <mxPoint x="640" y="490" as="targetPoint" />
          </mxGeometry>
        </mxCell>
        <mxCell id="J6pfeVUVHsCBB-X3MQVi-63" value="DB" style="shape=cylinder3;whiteSpace=wrap;html=1;boundedLbl=1;backgroundOutline=1;size=15;fillColor=#ffe6cc;strokeColor=#d79b00;" vertex="1" parent="1">
          <mxGeometry x="389.26" y="930" width="60" height="80" as="geometry" />
        </mxCell>
        <mxCell id="J6pfeVUVHsCBB-X3MQVi-64" value="" style="endArrow=classic;html=1;rounded=0;exitX=0.5;exitY=1;exitDx=0;exitDy=0;entryX=0.5;entryY=0;entryDx=0;entryDy=0;entryPerimeter=0;" edge="1" parent="1" source="J6pfeVUVHsCBB-X3MQVi-29" target="J6pfeVUVHsCBB-X3MQVi-63">
          <mxGeometry width="50" height="50" relative="1" as="geometry">
            <mxPoint x="490" y="860" as="sourcePoint" />
            <mxPoint x="440" y="910" as="targetPoint" />
          </mxGeometry>
        </mxCell>
        <mxCell id="J6pfeVUVHsCBB-X3MQVi-66" value="Cleaned items" style="text;html=1;align=center;verticalAlign=middle;resizable=0;points=[];autosize=1;strokeColor=none;fillColor=none;" vertex="1" parent="1">
          <mxGeometry x="420" y="870" width="100" height="30" as="geometry" />
        </mxCell>
        <mxCell id="J6pfeVUVHsCBB-X3MQVi-67" value="URL" style="text;html=1;align=center;verticalAlign=middle;resizable=0;points=[];autosize=1;strokeColor=none;fillColor=none;" vertex="1" parent="1">
          <mxGeometry x="427.75" y="310" width="50" height="30" as="geometry" />
        </mxCell>
        <mxCell id="J6pfeVUVHsCBB-X3MQVi-68" value="URL" style="text;html=1;align=center;verticalAlign=middle;resizable=0;points=[];autosize=1;strokeColor=none;fillColor=none;" vertex="1" parent="1">
          <mxGeometry x="427.75" y="430" width="50" height="30" as="geometry" />
        </mxCell>
        <mxCell id="J6pfeVUVHsCBB-X3MQVi-69" value="Response" style="text;html=1;align=center;verticalAlign=middle;resizable=0;points=[];autosize=1;strokeColor=none;fillColor=none;" vertex="1" parent="1">
          <mxGeometry x="422.75" y="585" width="80" height="30" as="geometry" />
        </mxCell>
        <mxCell id="J6pfeVUVHsCBB-X3MQVi-70" value="Response" style="text;html=1;align=center;verticalAlign=middle;resizable=0;points=[];autosize=1;strokeColor=none;fillColor=none;" vertex="1" parent="1">
          <mxGeometry x="424" y="710" width="80" height="30" as="geometry" />
        </mxCell>
        <mxCell id="J6pfeVUVHsCBB-X3MQVi-71" value="&lt;span style=&quot;color: rgb(0, 0, 0); font-family: Helvetica; font-size: 12px; font-style: normal; font-variant-ligatures: normal; font-variant-caps: normal; font-weight: 400; letter-spacing: normal; orphans: 2; text-align: center; text-indent: 0px; text-transform: none; widows: 2; word-spacing: 0px; -webkit-text-stroke-width: 0px; background-color: rgb(251, 251, 251); text-decoration-thickness: initial; text-decoration-style: initial; text-decoration-color: initial; float: none; display: inline !important;&quot;&gt;Request Fingerprint&lt;/span&gt;" style="text;whiteSpace=wrap;html=1;" vertex="1" parent="1">
          <mxGeometry x="660" y="430" width="150" height="40" as="geometry" />
        </mxCell>
        <mxCell id="J6pfeVUVHsCBB-X3MQVi-72" value="&lt;font style=&quot;font-size: 22px;&quot;&gt;Distributed Crawler&lt;/font&gt;" style="text;html=1;align=center;verticalAlign=middle;resizable=0;points=[];autosize=1;strokeColor=none;fillColor=none;" vertex="1" parent="1">
          <mxGeometry x="150.25" y="20" width="210" height="40" as="geometry" />
        </mxCell>
      </root>
    </mxGraphModel>
  </diagram>
</mxfile>
